<svg width="187" height="67" viewBox="0 0 187 67" fill="none" xmlns="http://www.w3.org/2000/svg">
<path d="M32 62H187L185 67H32V62Z" fill="#FF0000"/>
<circle cx="33.5" cy="33.5" r="33.5" fill="#FF111E"/>
<path d="M20.325 20.56C20.325 18.928 20.101 17.728 19.653 16.96C19.205 16.16 18.309 15.76 16.965 15.76H16.485V14.32H22.245C23.397 14.32 24.277 14.512 24.885 14.896C25.493 15.28 25.925 15.92 26.181 16.816C26.437 17.68 26.565 18.928 26.565 20.56V28.48H39.525V14.32H45.765V39.76C45.765 41.392 45.989 42.608 46.437 43.408C46.885 44.176 47.781 44.56 49.125 44.56H49.605V46H43.845C42.693 46 41.813 45.824 41.205 45.472C40.597 45.088 40.165 44.464 39.909 43.6C39.653 42.704 39.525 41.424 39.525 39.76V30.64H26.565V46H20.325V20.56Z" fill="#F8F8FF"/>
<path d="M77.8098 42.48C75.2178 42.48 73.2018 41.904 71.7618 40.752C70.3538 39.568 69.6498 37.984 69.6498 36C69.6498 34.4 70.0178 33.072 70.7538 32.016C71.5218 30.96 72.8498 30.16 74.7378 29.616C76.6258 29.072 79.2498 28.8 82.6098 28.8H83.3298C83.3298 26.016 82.9458 24.048 82.1778 22.896C81.4098 21.712 80.2738 21.12 78.7698 21.12C77.5218 21.12 76.4978 21.424 75.6978 22.032C74.8978 22.64 74.3218 23.776 73.9698 25.44H71.3298C71.3298 24.352 71.3938 23.424 71.5218 22.656C71.6818 21.888 72.0178 21.216 72.5298 20.64C73.5218 19.52 75.9218 18.96 79.7298 18.96C82.9298 18.96 85.3618 19.808 87.0258 21.504C88.7218 23.168 89.5698 25.68 89.5698 29.04V42H85.4898L83.8098 39.84H83.5698C83.2818 40.288 82.8338 40.736 82.2258 41.184C81.1378 42.048 79.6658 42.48 77.8098 42.48ZM79.2498 40.08C79.9218 40.08 80.4978 39.952 80.9778 39.696C81.4578 39.408 81.9218 39.024 82.3698 38.544C82.7858 38.096 83.1058 37.568 83.3298 36.96V30.96H82.6098C80.3378 30.96 78.6898 31.376 77.6658 32.208C76.6418 33.008 76.1298 34.272 76.1298 36C76.1298 37.312 76.4018 38.32 76.9458 39.024C77.4898 39.728 78.2578 40.08 79.2498 40.08ZM98.9823 16.848C97.8303 16.848 96.9343 16.496 96.2943 15.792C95.6863 15.088 95.3823 14.224 95.3823 13.2C95.3823 12.368 95.6223 11.712 96.1023 11.232C96.6143 10.752 97.2543 10.512 98.0223 10.512C99.1743 10.512 100.054 10.864 100.662 11.568C101.302 12.272 101.622 13.136 101.622 14.16C101.622 14.992 101.366 15.648 100.854 16.128C100.374 16.608 99.7503 16.848 98.9823 16.848ZM91.6383 49.92C93.1423 49.632 94.2143 48.832 94.8543 47.52C95.5263 46.208 95.8623 43.968 95.8623 40.8V25.68C95.8623 24.048 95.6383 22.848 95.1903 22.08C94.7423 21.28 93.8463 20.88 92.5023 20.88H92.0223V19.44H97.7823C98.9343 19.44 99.8143 19.632 100.422 20.016C101.03 20.4 101.462 21.04 101.718 21.936C101.974 22.8 102.102 24.048 102.102 25.68V40.8C102.102 43.488 101.766 45.568 101.094 47.04C100.454 48.512 99.3823 49.552 97.8783 50.16C96.4063 50.8 94.3263 51.12 91.6383 51.12V49.92ZM111.779 16.848C110.627 16.848 109.731 16.496 109.091 15.792C108.483 15.088 108.179 14.224 108.179 13.2C108.179 12.368 108.419 11.712 108.899 11.232C109.411 10.752 110.051 10.512 110.819 10.512C111.971 10.512 112.851 10.864 113.459 11.568C114.099 12.272 114.419 13.136 114.419 14.16C114.419 14.992 114.163 15.648 113.651 16.128C113.171 16.608 112.547 16.848 111.779 16.848ZM108.659 25.68C108.659 24.048 108.435 22.848 107.987 22.08C107.539 21.28 106.643 20.88 105.299 20.88H104.819V19.44H110.579C111.731 19.44 112.611 19.632 113.219 20.016C113.827 20.4 114.259 21.04 114.515 21.936C114.771 22.8 114.899 24.048 114.899 25.68V42H108.659V25.68ZM121.504 25.68C121.504 24.048 121.28 22.848 120.832 22.08C120.416 21.28 119.536 20.88 118.192 20.88H117.712V19.44H122.464C124.544 19.44 125.904 20.048 126.544 21.264H126.736C128.496 19.728 130.512 18.96 132.784 18.96C134.352 18.96 135.712 19.264 136.864 19.872C138.048 20.448 138.896 21.056 139.408 21.696C140.176 20.864 141.088 20.208 142.144 19.728C143.2 19.216 144.56 18.96 146.224 18.96C151.824 18.96 154.624 21.904 154.624 27.792V42H148.384V27.744C148.384 25.536 148.032 23.92 147.328 22.896C146.624 21.872 145.696 21.36 144.544 21.36C143.68 21.36 142.88 21.536 142.144 21.888C141.408 22.208 140.832 22.64 140.416 23.184C140.48 23.312 140.608 23.664 140.8 24.24C141.056 25.2 141.184 26.384 141.184 27.792V42H134.944V27.744C134.944 25.536 134.592 23.92 133.888 22.896C133.184 21.872 132.256 21.36 131.104 21.36C130.432 21.36 129.728 21.568 128.992 21.984C128.288 22.368 127.76 22.8 127.408 23.28L127.552 23.952C127.68 24.336 127.744 24.96 127.744 25.824V42H121.504V25.68ZM170.136 42.48C167.928 42.48 165.992 41.968 164.328 40.944C162.664 39.92 161.368 38.528 160.44 36.768C159.544 34.976 159.096 32.96 159.096 30.72C159.096 28.224 159.544 26.096 160.44 24.336C161.368 22.576 162.632 21.248 164.232 20.352C165.832 19.424 167.64 18.96 169.656 18.96C171.64 18.96 173.432 19.36 175.032 20.16C176.632 20.96 177.896 22.096 178.824 23.568C179.752 25.008 180.216 26.672 180.216 28.56C180.216 29.168 180.184 29.856 180.12 30.624L180.024 31.584H165.576C165.576 34.624 166.04 36.848 166.968 38.256C167.896 39.632 169.192 40.32 170.856 40.32C172.392 40.32 173.672 39.984 174.696 39.312C175.752 38.608 176.76 37.616 177.72 36.336L179.208 37.44C178.28 38.88 177.112 40.08 175.704 41.04C174.328 42 172.472 42.48 170.136 42.48ZM173.736 29.424C173.736 26.416 173.384 24.288 172.68 23.04C171.976 21.76 170.968 21.12 169.656 21.12C168.44 21.12 167.448 21.776 166.68 23.088C165.944 24.368 165.576 26.48 165.576 29.424H173.736Z" fill="#F8F8FF"/>
<path d="M94.4286 10H103L101.571 17H93L94.4286 10Z" fill="#FF0000"/>
<path d="M107.429 10H116L114.571 17H106L107.429 10Z" fill="#FF0000"/>
</svg>
